<svg width="322" height="120" viewBox="0 0 322 120" fill="none" xmlns="http://www.w3.org/2000/svg">
<path d="M80.1451 81.9355H67.9516L64.5374 71.693H41.8574L38.4432 81.9355H26.3309L46.2471 25.0323H60.1477L80.1451 81.9355ZM53.238 37.9575L45.4342 61.2065H61.0419L53.238 37.9575ZM93.8995 41.2904V48.2814C94.8207 45.7343 96.3924 43.8104 98.6143 42.5097C100.836 41.1549 103.383 40.4775 106.256 40.4775V52.1833C103.058 51.7497 100.186 52.4001 97.6388 54.1343C95.1459 55.8143 93.8995 58.6052 93.8995 62.5072V81.9355H83.413V41.2904H93.8995ZM134.979 41.2904V51.3704H125.794V68.2788C125.794 69.6878 126.146 70.7175 126.85 71.3678C127.555 72.0181 128.585 72.3975 129.939 72.5059C131.294 72.5601 132.974 72.533 134.979 72.4246V81.9355C127.88 82.7485 122.813 82.0981 119.778 79.9846C116.797 77.8168 115.307 73.9149 115.307 68.2788V51.3704H108.235V41.2904H115.307V33.0801L125.794 29.9097V41.2904H134.979ZM216.776 53.4839C216.776 60.8001 214.446 67.1949 209.785 72.6684L215.638 78.7652L207.671 85.8375L201.493 79.4155C197.104 81.8543 192.335 83.0736 187.186 83.0736C179.057 83.0736 172.093 80.2284 166.295 74.5381C160.55 68.7936 157.678 61.7755 157.678 53.4839C157.678 45.1923 160.55 38.2014 166.295 32.511C172.039 26.7665 179.003 23.8943 187.186 23.8943C195.37 23.8943 202.333 26.7665 208.078 32.511C213.877 38.2014 216.776 45.1923 216.776 53.4839ZM187.186 72.0994C189.354 72.0994 191.468 71.7472 193.527 71.0426L184.179 61.2878L192.145 54.2155L202.144 64.6207C204.42 61.3691 205.558 57.6568 205.558 53.4839C205.558 48.0646 203.797 43.5936 200.274 40.071C196.751 36.5484 192.389 34.7872 187.186 34.7872C181.984 34.7872 177.621 36.5484 174.099 40.071C170.576 43.5936 168.815 48.0646 168.815 53.4839C168.815 58.8491 170.576 63.293 174.099 66.8155C177.621 70.3381 181.984 72.0994 187.186 72.0994ZM250.023 63.2388V41.2904H260.509V81.9355H250.023V77.3833C247.53 81.1768 243.493 83.0736 237.911 83.0736C233.467 83.0736 229.782 81.5833 226.855 78.6026C223.983 75.5678 222.547 71.4491 222.547 66.2465V41.2904H233.033V64.9459C233.033 67.6014 233.738 69.6607 235.147 71.1239C236.61 72.5872 238.588 73.3188 241.081 73.3188C243.845 73.3188 246.013 72.4788 247.584 70.7988C249.21 69.0646 250.023 66.5446 250.023 63.2388ZM273.547 36.413C271.812 36.413 270.295 35.7897 268.994 34.5433C267.748 33.2426 267.125 31.7252 267.125 29.991C267.125 28.2568 267.748 26.7394 268.994 25.4388C270.295 24.1381 271.812 23.4878 273.547 23.4878C275.335 23.4878 276.852 24.1381 278.099 25.4388C279.4 26.7394 280.05 28.2568 280.05 29.991C280.05 31.7252 279.4 33.2426 278.099 34.5433C276.852 35.7897 275.335 36.413 273.547 36.413ZM278.831 81.9355H268.344V41.2904H278.831V81.9355ZM316.655 48.2814L299.421 72.0994H317.468V81.9355H285.358V74.9446L302.511 51.1265H286.171V41.2904H316.655V48.2814Z" fill="white"/>
<circle cx="60" cy="60" r="59.0323" stroke="white" stroke-width="1.93548"/>
<circle cx="120" cy="60" r="59.0323" stroke="white" stroke-width="1.93548"/>
</svg>
