<svg width="85" height="31" viewBox="0 0 85 31" fill="none" xmlns="http://www.w3.org/2000/svg">
<g clip-path="url(#clip0_981_1666)">
<path d="M43.8836 10.2679L47.9276 10.0112C48.0198 10.6605 48.189 11.1437 48.4657 11.491C48.9117 12.0346 49.5267 12.3064 50.3417 12.3064C50.9413 12.3064 51.418 12.1705 51.7409 11.8836C52.0484 11.6571 52.2329 11.2947 52.2329 10.9172C52.2329 10.5548 52.0638 10.2075 51.7716 9.981C51.4641 9.7092 50.7414 9.4374 49.6036 9.1958C47.7431 8.78811 46.4053 8.24451 45.6211 7.54992C44.837 6.90062 44.391 5.94933 44.4218 4.93764C44.4218 4.24305 44.6371 3.54846 45.0368 2.97466C45.4981 2.32537 46.1286 1.81197 46.882 1.52508C47.6969 1.17778 48.8348 0.996582 50.2648 0.996582C52.0177 0.996582 53.3554 1.31368 54.278 1.96297C55.2006 2.59717 55.7541 3.62396 55.9232 5.02824L51.9254 5.25474C51.8178 4.65075 51.6025 4.21285 51.2488 3.92595C50.8952 3.63906 50.4339 3.50316 49.8342 3.50316C49.3422 3.50316 48.9732 3.60886 48.7271 3.80515C48.4965 3.98635 48.3427 4.25815 48.3581 4.56015C48.3581 4.78665 48.4811 4.99804 48.6656 5.13394C48.8655 5.31514 49.3422 5.48124 50.0956 5.63224C51.9562 6.02483 53.2785 6.41743 54.0935 6.82513C54.9084 7.23282 55.4927 7.73112 55.8464 8.32001C56.2154 8.92401 56.3999 9.6186 56.3845 10.3283C56.3845 11.1739 56.1385 12.0195 55.6465 12.7292C55.139 13.4691 54.4317 14.0429 53.6014 14.3902C52.725 14.7676 51.6179 14.9639 50.2955 14.9639C47.9583 14.9639 46.3438 14.5261 45.4366 13.6352C44.5294 12.7443 43.9913 11.6269 43.8836 10.2679ZM0.968455 14.7374V1.23818H8.05692C9.3639 1.23818 10.3787 1.34388 11.0707 1.57038C11.7472 1.78177 12.3469 2.21967 12.7467 2.80856C13.1926 3.45786 13.4079 4.21285 13.3925 4.99804C13.4386 6.32683 12.7467 7.59522 11.5627 8.25961C11.1014 8.51631 10.594 8.69751 10.0712 8.78811C10.4556 8.89381 10.84 9.075 11.1783 9.2864C11.4397 9.4978 11.655 9.7394 11.8549 9.99609C12.0855 10.2528 12.2854 10.5397 12.4545 10.8417L14.5149 14.7525H9.6868L7.41111 10.6001C7.11896 10.0716 6.87294 9.7243 6.6423 9.5582C6.33477 9.3468 5.96574 9.2411 5.59671 9.2411H5.22768V14.7223H0.968455V14.7374ZM5.22768 6.70433H7.0267C7.41111 6.67413 7.78014 6.61373 8.14917 6.52313C8.42595 6.47783 8.67197 6.32683 8.8411 6.10033C9.25626 5.55674 9.19476 4.78665 8.68734 4.31855C8.41057 4.09205 7.8724 3.97125 7.10359 3.97125H5.22768V6.70433ZM-0.000249863 26.3039L4.04371 26.0472C4.13597 26.6965 4.30511 27.1797 4.58188 27.527C5.01241 28.0706 5.64284 28.3575 6.45778 28.3575C7.05746 28.3575 7.53412 28.2216 7.85702 27.9347C8.16455 27.6931 8.34906 27.3458 8.34906 26.9683C8.34906 26.6059 8.17992 26.2586 7.88778 26.0321C7.58025 25.7603 6.85757 25.4885 5.70435 25.2469C3.84382 24.8392 2.50608 24.2957 1.72189 23.6011C0.937702 22.9518 0.491791 22.0005 0.522543 20.9888C0.522543 20.2942 0.737811 19.5996 1.13759 19.0258C1.59888 18.3765 2.22931 17.8631 2.98275 17.5762C3.79769 17.2289 4.93553 17.0477 6.36553 17.0477C8.11842 17.0477 9.45615 17.3648 10.3787 18.0141C11.3013 18.6634 11.8395 19.6751 12.0086 21.0794L8.01079 21.3059C7.90315 20.7019 7.68788 20.264 7.33423 19.9771C6.99595 19.6902 6.51929 19.5543 5.91961 19.5694C5.42757 19.5694 5.05854 19.6751 4.81252 19.8865C4.5665 20.0677 4.42812 20.3395 4.44349 20.6415C4.44349 20.868 4.5665 21.0794 4.75102 21.2153C4.95091 21.3965 5.42757 21.5626 6.18101 21.7136C8.04154 22.1062 9.3639 22.4988 10.1788 22.9065C10.9938 23.3142 11.5781 23.8125 11.9317 24.4014C12.3008 25.0053 12.4853 25.6999 12.4853 26.3945C12.4853 27.2401 12.2239 28.0706 11.7472 28.7803C11.2398 29.5202 10.5325 30.094 9.70218 30.4413C8.82573 30.8188 7.71864 31.0151 6.39628 31.0151C4.05908 31.0151 2.44458 30.5772 1.53738 29.6863C0.630177 28.7803 0.12276 27.6629 -0.000249863 26.3039H-0.000249863Z" fill="white"/>
<path d="M20.4502 25.2471L24.1712 26.3494C23.9713 27.2704 23.5562 28.1462 22.9873 28.9163C22.4645 29.5958 21.7725 30.1243 20.9883 30.4716C20.1888 30.8189 19.1739 31.0001 17.9438 31.0001C16.4524 31.0001 15.2222 30.7887 14.2843 30.3659C13.331 29.9431 12.516 29.1881 11.8241 28.116C11.1322 27.044 10.7939 25.6699 10.7939 23.9938C10.7939 21.759 11.3936 20.0376 12.6083 18.8447C13.823 17.6518 15.5298 17.0479 17.744 17.0479C19.4815 17.0479 20.8346 17.3951 21.834 18.0746C22.8181 18.7692 23.5562 19.8262 24.0482 21.2456L20.2964 22.061C20.2042 21.7439 20.0658 21.4268 19.8813 21.155C19.6506 20.8379 19.3585 20.5963 19.0048 20.4151C18.6512 20.2339 18.2514 20.1584 17.8516 20.1584C16.8829 20.1584 16.1448 20.5359 15.6374 21.306C15.253 21.8647 15.0531 22.7556 15.0531 23.9636C15.0531 25.4585 15.2838 26.4853 15.745 27.044C16.2063 27.6026 16.8521 27.8744 17.6978 27.8744C18.5128 27.8744 19.1278 27.6479 19.543 27.21C19.9581 26.742 20.2657 26.0927 20.4502 25.2471ZM29.1378 17.2743H33.3816V22.0006H38.0253V17.2743H42.2999V30.7736H38.0253V25.3075H33.3816V30.7736H29.1378V17.2743Z" fill="white"/>
<path d="M41.7156 24.0239C41.7156 21.8194 42.346 20.098 43.5915 18.8749C44.8369 17.6518 46.5898 17.0327 48.8194 17.0327C51.1105 17.0327 52.8634 17.6367 54.1088 18.8447C55.3543 20.0527 55.9694 21.7439 55.9694 23.9182C55.9694 25.5037 55.6926 26.7872 55.1544 27.7989C54.6316 28.7955 53.8167 29.6109 52.8172 30.1545C51.787 30.7132 50.5108 31.0001 48.9885 31.0001C47.4355 31.0001 46.1593 30.7585 45.1445 30.2753C44.0989 29.7619 43.2378 28.9616 42.6689 27.9801C42.0385 26.9231 41.7156 25.6094 41.7156 24.0239ZM45.9594 24.039C45.9594 25.398 46.2208 26.3795 46.7282 26.9835C47.2356 27.5724 47.9429 27.8744 48.8348 27.8744C49.742 27.8744 50.4493 27.5875 50.9567 26.9986C51.4641 26.4097 51.7101 25.3678 51.7101 23.8578C51.7101 22.5895 51.4487 21.6533 50.9259 21.0795C50.4032 20.4906 49.6958 20.2037 48.804 20.2037C48.0198 20.1735 47.2664 20.5057 46.7436 21.0946C46.2208 21.6835 45.9594 22.665 45.9594 24.039ZM60.3208 24.0239C60.3208 21.8194 60.9513 20.098 62.1967 18.8749C63.4422 17.6518 65.1951 17.0327 67.4247 17.0327C69.7157 17.0327 71.484 17.6367 72.7141 18.8447C73.9442 20.0527 74.5746 21.7439 74.5746 23.9182C74.5746 25.5037 74.2979 26.7872 73.7597 27.7989C73.2369 28.7955 72.422 29.6109 71.4225 30.1545C70.3923 30.7132 69.1161 31.0001 67.5938 31.0001C66.0408 31.0001 64.7646 30.7585 63.7498 30.2753C62.7042 29.7619 61.8431 28.9616 61.2742 27.9801C60.6437 26.9231 60.3208 25.6094 60.3208 24.0239ZM64.5647 24.039C64.5647 25.398 64.8261 26.3795 65.3335 26.9835C65.8409 27.5724 66.5482 27.8744 67.4401 27.8744C68.3473 27.8744 69.0546 27.5875 69.562 26.9986C70.0694 26.4097 70.3154 25.3678 70.3154 23.8578C70.3154 22.5895 70.054 21.6533 69.5312 21.0795C69.0084 20.4906 68.3011 20.2037 67.4093 20.2037C66.6251 20.1735 65.8563 20.5057 65.3489 21.0946C64.8261 21.6835 64.5647 22.665 64.5647 24.039Z" fill="white"/>
<path d="M74.1287 17.2744H78.3726V27.4517H84.9997V30.7737H74.1133V17.2744H74.1287Z" fill="white"/>
<path d="M69.4511 16.4952C73.7237 13.3332 75.0413 7.97331 72.3939 4.52339C69.7465 1.07348 64.1367 0.84 59.8641 4.00191C55.5914 7.16382 54.2739 12.5238 56.9212 15.9737C59.5686 19.4236 65.1784 19.6571 69.4511 16.4952Z" fill="white"/>
<path d="M69.4511 16.4952C73.7237 13.3332 75.0413 7.97331 72.3939 4.52339C69.7465 1.07347 64.1367 0.839999 59.8641 4.00191C55.5914 7.16382 54.2739 12.5238 56.9212 15.9737C59.5686 19.4236 65.1784 19.6571 69.4511 16.4952Z" fill="white"/>
<path fill-rule="evenodd" clip-rule="evenodd" d="M60.0491 4.24344C55.865 7.33987 54.6539 12.5176 57.1668 15.7923C59.6798 19.067 65.0818 19.3507 69.266 16.2543C73.4502 13.1579 74.6612 7.98019 72.1483 4.70549C69.6354 1.43079 64.2333 1.14701 60.0491 4.24344ZM56.6757 16.1558C53.8938 12.5306 55.3178 6.98847 59.679 3.76108C64.0401 0.533686 69.8577 0.716863 72.6395 4.34199C75.4213 7.96711 73.9973 13.5093 69.6362 16.7367C65.275 19.9641 59.4575 19.7809 56.6757 16.1558Z" fill="white"/>
<path d="M60.3362 9.25611L61.8738 8.19912L63.7651 10.8416C64.088 11.2644 64.3341 11.7174 64.5186 12.2157C64.6262 12.5932 64.5954 13.0009 64.4417 13.3633C64.2418 13.8163 63.9189 14.1938 63.4884 14.4656C62.9809 14.8129 62.5504 15.0092 62.1814 15.0696C61.8277 15.13 61.4587 15.0696 61.1204 14.9186C60.7514 14.7374 60.4285 14.4807 60.1825 14.1485L61.5048 12.9405C61.6124 13.1066 61.7508 13.2576 61.9046 13.3784C62.0122 13.4539 62.1352 13.4992 62.2736 13.4992C62.3813 13.4992 62.4889 13.4539 62.5658 13.3935C62.7195 13.3029 62.8272 13.1217 62.8118 12.9405C62.7657 12.6838 62.658 12.4271 62.4889 12.2308L60.3362 9.25611ZM64.9491 10.9322L66.3483 9.84501C66.5021 10.0262 66.702 10.1621 66.9173 10.2376C67.2248 10.3282 67.5477 10.2678 67.8091 10.0715C67.9936 9.95071 68.1474 9.78461 68.2089 9.57321C68.3011 9.30141 68.1474 8.99942 67.8706 8.90882C67.8245 8.89372 67.7783 8.87862 67.7322 8.87862C67.5477 8.86352 67.2248 8.93902 66.7481 9.13531C65.9639 9.45241 65.3489 9.57321 64.8876 9.52791C64.4417 9.48261 64.0265 9.25611 63.7805 8.87862C63.596 8.62192 63.5037 8.31992 63.4884 8.01793C63.4884 7.67063 63.5806 7.32333 63.7805 7.03644C64.0727 6.62874 64.4263 6.28144 64.8568 6.00965C65.5026 5.57175 66.0716 5.36035 66.5636 5.36035C67.0557 5.36035 67.5169 5.58685 67.9475 6.05494L66.5636 7.12703C66.2868 6.77974 65.764 6.70424 65.4104 6.97604L65.3643 7.02134C65.2105 7.11193 65.1029 7.24783 65.0414 7.41393C64.9952 7.53473 65.026 7.67063 65.1029 7.77633C65.1644 7.85183 65.2566 7.91223 65.3643 7.91223C65.4873 7.92733 65.7025 7.86693 66.0101 7.73103C66.7789 7.41393 67.3632 7.23273 67.763 7.17233C68.1012 7.11193 68.4549 7.14213 68.7778 7.27803C69.0699 7.39883 69.316 7.61023 69.4851 7.86693C69.7004 8.16892 69.8234 8.53132 69.8388 8.90882C69.8541 9.30141 69.7465 9.67891 69.5312 10.0111C69.2545 10.4188 68.9008 10.7661 68.4856 11.0379C67.6399 11.6117 66.948 11.8533 66.3945 11.7627C65.7948 11.6721 65.3028 11.3701 64.9491 10.9322Z" fill="#161004"/>
</g>
<defs>
<clipPath id="clip0_981_1666">
<rect width="85" height="31" fill="white" transform="translate(-0.000249863)"/>
</clipPath>
</defs>
</svg>
